:FULLY-SPECIFIED
:FORCE-ALL-JOINTS-BE-3DOF
:DEGREES
340
root 8.19832 15.914 -21.1878 8.69715 30.3933 5.67693
lfemur -17.4943 23.1871 -13.4358
ltibia 47.6623 -0 0
lfoot -17.7112 13.3713 -0.205065
ltoes -15.1008 0 0
rfemur -44.2176 -6.68222 4.42518
rtibia 53.1115 -0 0
rfoot 3.93645 -14.2766 -0.672003
rtoes 33.4639 -0 0
lowerback 5.4785 -0.829956 -2.50412
upperback 3.5588 -1.17248 -0.998808
thorax 0.654816 -0.604749 0.427879
lowerneck -4.56538 -10.0825 1.75234
upperneck -4.75728 -13.3625 6.27166
head -0.354478 -6.73454 1.55224
lclavicle -2.35923e-14 1.14275e-14 9.74535e-32
lhumerus -47.7019 -46.4128 110.262
lradius 59.5305 -0 0
lwrist 15.7345 0 0
lhand 7.87609 11.87 0.414103
lfingers 7.12502 -0 0
lthumb 33.0402 38.2059 0.219334
rclavicle -2.35923e-14 1.14275e-14 9.74535e-32
rhumerus -14.0902 14.6255 -64.8904
rradius 77.8977 -0 0
rwrist -2.64372 0 0
rhand -34.9566 -28.3467 0.340799
rfingers 7.12502 -0 0
rthumb -8.10069 -57.8576 0.337292
341
root 8.1327 15.9348 -21.0162 8.53832 28.8027 5.21984
lfemur -18.3614 23.1901 -13.3417
ltibia 48.7209 -0 0
lfoot -17.4896 12.7394 -0.230681
ltoes -14.0481 0 0
rfemur -43.6337 -6.52845 5.36778
rtibia 52.7499 -0 0
rfoot 3.07315 -13.747 -0.756183
rtoes 32.8696 -0 0
lowerback 5.46534 -0.7667 -2.31762
upperback 3.52715 -1.08161 -0.917495
thorax 0.628961 -0.557736 0.402202
lowerneck -4.69538 -9.78157 1.78061
upperneck -4.60897 -12.9768 6.12516
head -0.302309 -6.5368 1.50634
lclavicle -2.35321e-14 1.03182e-14 1.09601e-31
lhumerus -47.2839 -45.5917 109.605
lradius 59.4807 -0 0
lwrist 15.9318 0 0
lhand 6.88126 11.5868 0.465987
lfingers 7.12502 -0 0
lthumb 32.0871 38.0493 0.246796
rclavicle -2.35321e-14 1.03182e-14 1.09601e-31
rhumerus -14.934 14.704 -65.9163
rradius 77.3936 -0 0
rwrist -2.28278 0 0
rhand -34.0463 -28.0918 0.383461
rfingers 7.12502 -0 0
rthumb -7.22228 -57.596 0.379505
342
root 8.06379 15.9566 -20.8361 8.38937 27.1313 4.75238
lfemur -19.272 23.1948 -13.243
ltibia 49.8325 -0 0
lfoot -17.2566 12.0757 -0.254948
ltoes -12.9427 0 0
rfemur -43.018 -6.37726 6.35898
rtibia 52.37 -0 0
rfoot 2.16577 -13.1896 -0.835979
rtoes 32.2455 -0 0
lowerback 5.45175 -0.700228 -2.12178
upperback 3.49406 -0.986137 -0.832162
thorax 0.601787 -0.508379 0.375216
lowerneck -4.83161 -9.46543 1.80953
upperneck -4.45455 -12.5715 5.97266
head -0.247708 -6.32906 1.45834
lclavicle -2.3469e-14 9.15323e-15 1.21104e-31
lhumerus -46.8657 -44.726 108.935
lradius 59.4283 -0 0
lwrist 16.139 0 0
lhand 5.83629 11.2886 0.51517
lfingers 7.12502 -0 0
lthumb 31.0861 37.8843 0.272826
rclavicle -2.3469e-14 9.15323e-15 1.21104e-31
rhumerus -15.8217 14.7707 -66.9952
rradius 76.864 -0 0
rwrist -1.90359 0 0
rhand -33.0902 -27.8233 0.423897
rfingers 7.12502 -0 0
rthumb -6.29964 -57.3207 0.419512
343
root 7.99198 15.9794 -20.6483 8.25249 25.3884 4.27746
lfemur -20.2209 23.2012 -13.1402
ltibia 50.991 -0 0
lfoot -17.0135 11.384 -0.277364
ltoes -11.7907 0 0
rfemur -42.3738 -6.231 7.3933
rtibia 51.9742 -0 0
rfoot 1.21937 -12.6073 -0.909728
rtoes 31.5952 -0 0
lowerback 5.43783 -0.630907 -1.91772
upperback 3.45972 -0.886591 -0.743295
thorax 0.573444 -0.456957 0.347068
lowerneck -4.97328 -9.13591 1.83882
upperneck -4.29507 -12.1486 5.81518
head -0.191016 -6.11252 1.40855
lclavicle -2.34031e-14 7.93924e-15 1.31724e-31
lhumerus -46.4514 -43.8203 108.257
lradius 59.3737 -0 0
lwrist 16.3549 0 0
lhand 4.74705 10.9769 0.560628
lfingers 7.12502 -0 0
lthumb 30.0429 37.7119 0.29688
rclavicle -2.34031e-14 7.93924e-15 1.31724e-31
rhumerus -16.7483 14.823 -68.1209
rradius 76.3123 -0 0
rwrist -1.50857 0 0
rhand -32.0936 -27.5429 0.461262
rfingers 7.12502 -0 0
rthumb -5.33794 -57.0331 0.45648
344
root 7.91767 16.003 -20.454 8.12939 23.5835 3.79756
lfemur -21.2032 23.2094 -13.034
ltibia 52.19 -0 0
lfoot -16.7616 10.6679 -0.297471
ltoes -10.5983 0 0
rfemur -41.7046 -6.09183 8.46523
rtibia 51.5646 -0 0
rfoot 0.239071 -12.0035 -0.975919
rtoes 30.9221 -0 0
lowerback 5.42368 -0.559105 -1.70652
upperback 3.42434 -0.783502 -0.65138
thorax 0.544081 -0.403749 0.317908
lowerneck -5.11964 -8.79466 1.86825
upperneck -4.13148 -11.7104 5.65368
head -0.13256 -5.88834 1.35727
lclavicle -2.3335e-14 6.68274e-15 1.41247e-31
lhumerus -46.0444 -42.8793 107.575
lradius 59.3172 -0 0
lwrist 16.5783 0 0
lhand 3.61941 10.6534 0.601428
lfingers 7.12502 -0 0
lthumb 28.963 37.533 0.318467
rclavicle -2.3335e-14 6.68274e-15 1.41247e-31
rhumerus -17.7085 14.8586 -69.2869
rradius 75.7412 -0 0
rwrist -1.09972 0 0
rhand -31.062 -27.2521 0.494794
rfingers 7.12502 -0 0
rthumb -4.34237 -56.7348 0.489653
345
root 7.84123 16.0273 -20.2541 8.02143 21.7259 3.31482
lfemur -22.2136 23.2196 -12.9249
ltibia 53.4233 -0 0
lfoot -16.5022 9.93124 -0.314868
ltoes -9.37179 0 0
rfemur -41.0138 -5.96169 9.5692
rtibia 51.1432 -0 0
rfoot -0.769988 -11.3813 -1.03321
rtoes 30.2297 -0 0
lowerback 5.4094 -0.485193 -1.4893
upperback 3.38812 -0.677402 -0.556901
thorax 0.51385 -0.349032 0.287885
lowerneck -5.26983 -8.44367 1.89757
upperneck -3.96482 -11.2592 5.48918
head -0.0726654 -5.65769 1.30477
lclavicle -2.32649e-14 5.39026e-15 1.49483e-31
lhumerus -45.6479 -41.9078 106.893
lradius 59.2591 -0 0
lwrist 16.8082 0 0
lhand 2.45925 10.3199 0.636745
lfingers 7.12502 -0 0
lthumb 27.8522 37.3487 0.337151
rclavicle -2.32649e-14 5.39026e-15 1.49483e-31
rhumerus -18.6968 14.8755 -70.487
rradius 75.1538 -0 0
rwrist -0.679163 0 0
rhand -30.0006 -26.9523 0.523815
rfingers 7.12502 -0 0
rthumb -3.31812 -56.4274 0.518363
346
root 7.76305 16.0521 -20.0497 7.92958 19.8253 2.83104
lfemur -23.2471 23.2319 -12.8135
ltibia 54.6848 -0 0
lfoot -16.2368 9.17773 -0.329211
ltoes -8.11735 0 0
rfemur -40.305 -5.84231 10.6996
rtibia 50.7122 -0 0
rfoot -1.80263 -10.7439 -1.08047
rtoes 29.5215 -0 0
lowerback 5.39509 -0.409542 -1.26715
upperback 3.35126 -0.568822 -0.460342
thorax 0.482901 -0.293086 0.257148
lowerneck -5.4231 -8.0846 1.92658
upperneck -3.79599 -10.7973 5.32257
head -0.0116496 -5.42173 1.25135
lclavicle -2.31932e-14 4.06834e-15 1.56271e-31
lhumerus -45.2643 -40.9106 106.215
lradius 59.1996 -0 0
lwrist 17.0433 0 0
lhand 1.27247 9.97807 0.665873
lfingers 7.12502 -0 0
lthumb 26.716 37.1598 0.352559
rclavicle -2.31932e-14 4.06834e-15 1.56271e-31
rhumerus -19.7079 14.872 -71.7145
rradius 74.5531 -0 0
rwrist -0.249021 0 0
rhand -28.9149 -26.6452 0.547749
rfingers 7.12502 -0 0
rthumb -2.2704 -56.1126 0.542038
347
root 7.68353 16.0774 -19.8417 7.8545 17.8911 2.34775
lfemur -24.2985 23.2463 -12.7004
ltibia 55.9681 -0 0
lfoot -15.9666 8.41111 -0.340218
ltoes -6.84118 0 0
rfemur -39.5817 -5.73517 11.8508
rtibia 50.2738 -0 0
rfoot -2.85364 -10.0948 -1.11674
rtoes 28.8011 -0 0
lowerback 5.38083 -0.332524 -1.04118
upperback 3.31395 -0.458299 -0.362182
thorax 0.451386 -0.236188 0.225847
lowerneck -5.57872 -7.71924 1.95506
upperneck -3.62589 -10.327 5.15475
head 0.0501727 -5.18162 1.19729
lclavicle -2.31202e-14 2.72352e-15 1.6148e-31
lhumerus -44.8956 -39.8929 105.545
lradius 59.1392 -0 0
lwrist 17.2825 0 0
lhand 0.064968 9.62982 0.688236
lfingers 7.12502 -0 0
lthumb 25.5601 36.9673 0.364388
rclavicle -2.31202e-14 2.72352e-15 1.6148e-31
rhumerus -20.736 14.847 -72.963
rradius 73.9419 -0 0
rwrist 0.188606 0 0
rhand -27.8103 -26.3323 0.566121
rfingers 7.12502 -0 0
rthumb -1.20441 -55.7919 0.560212
348
root 7.60304 16.103 -19.6312 7.79658 15.9328 1.8663
lfemur -25.3629 23.2628 -12.5863
ltibia 57.267 -0 0
lfoot -15.6929 7.63512 -0.347677
ltoes -5.5495 0 0
rfemur -38.8477 -5.64148 13.0171
rtibia 49.83 -0 0
rfoot -3.91779 -9.43712 -1.14133
rtoes 28.0719 -0 0
lowerback 5.3667 -0.254512 -0.812475
upperback 3.27637 -0.346365 -0.262904
thorax 0.419455 -0.178615 0.194135
lowerneck -5.73591 -7.34934 1.98284
upperneck -3.45541 -9.85035 4.98659
head 0.112492 -4.93853 1.14285
lclavicle -2.30464e-14 1.36236e-15 1.65009e-31
lhumerus -44.5435 -38.8595 104.885
lradius 59.0779 -0 0
lwrist 17.5246 0 0
lhand -1.15734 9.27693 0.703392
lfingers 7.12502 -0 0
lthumb 24.3901 36.7723 0.372404
rclavicle -2.30464e-14 1.36236e-15 1.65009e-31
rhumerus -21.7757 14.7997 -74.2258
rradius 73.3233 -0 0
rwrist 0.631515 0 0
rhand -26.6922 -26.0154 0.578572
rfingers 7.12502 -0 0
rthumb -0.125368 -55.467 0.572528
349
root 7.52198 16.1289 -19.4192 7.7559 13.96 1.38786
lfemur -26.435 23.2814 -12.4716
ltibia 58.5753 -0 0
lfoot -15.4172 6.85351 -0.351442
ltoes -4.2485 0 0
rfemur -38.1068 -5.56216 14.1927
rtibia 49.3831 -0 0
rfoot -4.98984 -8.7744 -1.15374
rtoes 27.3375 -0 0
lowerback 5.35279 -0.175882 -0.582143
upperback 3.23873 -0.233559 -0.162984
thorax 0.387262 -0.120645 0.162161
lowerneck -5.89391 -6.97672 2.00977
upperneck -3.28537 -9.36982 4.81891
head 0.175004 -4.69363 1.08831
lclavicle -2.29721e-14 -8.62469e-18 1.6679e-31
lhumerus -44.2091 -37.8156 104.238
lradius 59.0163 -0 0
lwrist 17.7684 0 0
lhand -2.38852 8.92125 0.711045
lfingers 7.12502 -0 0
lthumb 23.2116 36.5758 0.376452
rclavicle -2.29721e-14 -8.62469e-18 1.6679e-31
rhumerus -22.8213 14.7296 -75.4962
rradius 72.7002 -0 0
rwrist 1.07762 0 0
rhand -25.566 -25.696 0.584858
rfingers 7.12502 -0 0
rthumb 0.961506 -55.1396 0.578747
350
root 7.44074 16.1548 -19.2067 7.73235 11.9823 0.913505
lfemur -27.5098 23.302 -12.3571
ltibia 59.8866 -0 0
lfoot -15.1409 6.07003 -0.351442
ltoes -2.9444 0 0
rfemur -37.3627 -5.49786 15.3719
rtibia 48.935 -0 0
rfoot -6.06451 -8.10998 -1.15374
rtoes 26.6013 -0 0
lowerback 5.33917 -0.0970079 -0.351281
upperback 3.20119 -0.120418 -0.0629015
thorax 0.35496 -0.0625548 0.130079
lowerneck -6.05199 -6.60315 2.03571
upperneck -3.11658 -8.88765 4.6525
head 0.237409 -4.44809 1.03393
lclavicle -2.28975e-14 -1.38288e-15 1.6679e-31
lhumerus -43.8934 -36.7664 103.606
lradius 58.9545 -0 0
lwrist 18.0128 0 0
lhand -3.62268 8.56463 0.711045
lfingers 7.12502 -0 0
lthumb 22.0304 36.3787 0.376452
rclavicle -2.28975e-14 -1.38288e-15 1.6679e-31
rhumerus -23.867 14.637 -76.7676
rradius 72.0756 -0 0
rwrist 1.52478 0 0
rhand -24.437 -25.3757 0.584858
rfingers 7.12502 -0 0
rthumb 2.05099 -54.8114 0.578747
